# xmcd CD database file
#
# Track frame offsets:
#	150
#	18916
#	37691
#	55257
#	71819
#	93428
#	109985
#	130367
#	152094
#	167864
#	190727
#	212305
#
# Disc length: 3102 seconds
#
# Revision: 2
# Processed by: cddbd v1.5.2PL0 Copyright (c) Steve Scherf et al.
# Submitted via: CDex 1.40Release
#
DISCID=9c0c1c0c
DTITLE=לאה שבת - חמניות מול השמש
DYEAR=2002
DGENRE=Blues
TTITLE0=חמניות מול השמש
TTITLE1=תנגני קצת על הגיטרה
TTITLE2=והגשם
TTITLE3=היא מתה לבכות
TTITLE4=כזה אושר
TTITLE5=רחמים
TTITLE6=סימן בחול
TTITLE7=הולכים במדבר
TTITLE8=מול הירח
TTITLE9=כל השנים
TTITLE10=אשה ילדה
TTITLE11=מי מכסה ת'כוכבים
EXTD=YEAR: 2002 ID3G: 0
EXTT0=
EXTT1=
EXTT2=
EXTT3=
EXTT4=
EXTT5=
EXTT6=
EXTT7=
EXTT8=
EXTT9=
EXTT10=
EXTT11=
PLAYORDER=
